<?xml version="1.0" encoding="utf-8"?>
<!-- Generator: Adobe Illustrator 19.1.0, SVG Export Plug-In . SVG Version: 6.00 Build 0)  -->
<svg version="1.1" id="Layer_1" xmlns="http://www.w3.org/2000/svg" xmlns:xlink="http://www.w3.org/1999/xlink" x="0px" y="0px"
	 viewBox="0 0 250 250" style="enable-background:new 0 0 250 250;" xml:space="preserve">
<style type="text/css">
	.st0{fill:#DD0031;}
	.st1{fill:#C3002F;}
	.st2{fill:#FFFFFF;}
</style>
<g>
	<polygon class="st0" points="125,30 125,30 125,30 31.9,63.2 46.1,186.3 125,230 125,230 125,230 203.9,186.3 218.1,63.2 	"/>
	<polygon class="st1" points="125,30 125,52.2 125,52.1 125,153.4 125,153.4 125,230 125,230 203.9,186.3 218.1,63.2 125,30 	"/>
</g>
<g transform="translate(71,65) scale(1.5, 1.5)">
	<path class="st2" d="M17.68,20.49V26.6l1.48-.47c.18-.06.35-.17.53-.24,7.79-3.16,11.9-4.71,16.1-4.65s8.32,1.49,16.1,4.65c.18.07.35.18.53.24l1.48.47V20.49c-2.86-.2-1.32-2.31-1.57-3.28l3.14-3c0-.68,0-1.52,0-2.59H44.33V6.54H36.8V0h-2V6.54H27.26v5.13H16.1v2.59l3.14,3C19,18.18,20.54,20.29,17.68,20.49Zm25.24-3.77h5.24v3.46H42.92Zm-10,0h5.85v3.48H32.87Zm-9.43,0h5.24v3.46H23.44Z"/>
	<path class="st2" d="M39.51,24a10.56,10.56,0,0,0-4-.6c-9.84,1.71-18.64,6.28-27.59,11.21,2.2,4.22,4.3,8.28,6.42,12.33,2.94,5.59,5.8,11.22,7.27,17.49A6.29,6.29,0,0,0,23.8,62.5a1.77,1.77,0,0,1,2.66-.43,2,2,0,0,1,.61.86,4.62,4.62,0,0,0,3.48,1.94,4.84,4.84,0,0,0,3.75-2.3,1.8,1.8,0,0,1,.53-.55l1-19.55a2.31,2.31,0,0,1,.29,0c.31,3.18.61,12.67.93,19.68a1.64,1.64,0,0,1,.4.43,4.75,4.75,0,0,0,3.75,2.3,4.84,4.84,0,0,0,3.75-2.3,1.74,1.74,0,0,1,2-.79,2,2,0,0,1,1.09.79,5.82,5.82,0,0,0,2.25,2A8.27,8.27,0,0,0,51,62.72C52.65,55.55,56.47,49.38,59.8,43c1.43-2.74,2.8-5.51,4.28-8.42C55.95,30.45,48.18,26.07,39.51,24Z"/>
	<path class="st2" d="M58.24,65.32a1.77,1.77,0,0,0-2.66.43A4.84,4.84,0,0,1,51.83,68a4.75,4.75,0,0,1-3.75-2.3A2,2,0,0,0,47,65a1.74,1.74,0,0,0-2,.79A4.84,4.84,0,0,1,41.19,68a4.75,4.75,0,0,1-3.75-2.3A2,2,0,0,0,36.35,65a1.74,1.74,0,0,0-2,.79A4.84,4.84,0,0,1,30.55,68a4.62,4.62,0,0,1-3.48-1.94,2,2,0,0,0-.61-.86,1.77,1.77,0,0,0-2.66.43A4.84,4.84,0,0,1,20,68a4.65,4.65,0,0,1-3.75-2.3,1.72,1.72,0,0,0-2.73-.29,2,2,0,0,0-.2,2.66c1.84,2.44,4.23,4,6.89,4a7.59,7.59,0,0,0,5.25-2.23A7.75,7.75,0,0,0,30.82,72a7.35,7.35,0,0,0,5.25-2.23A7.75,7.75,0,0,0,41.39,72a7.47,7.47,0,0,0,5.25-2.23A7.75,7.75,0,0,0,52,72a8.25,8.25,0,0,0,6.68-4A1.9,1.9,0,0,0,58.24,65.32Z"/>
</g>
</svg>
